<svg version="1.1" id="Layer_1" xmlns="http://www.w3.org/2000/svg" xmlns:xlink="http://www.w3.org/1999/xlink" x="0px" y="0px"
	 width="100%" viewBox="0 0 1024 672" enable-background="new 0 0 1024 672" xml:space="preserve">
<path fill="#000000" opacity="1.000000" stroke="none" 
	d="
M547.891357,478.288513 
	C508.181091,479.402618 473.985382,466.981812 445.874420,439.441162 
	C422.186432,416.233795 408.979309,387.895844 405.485718,354.725281 
	C398.294922,286.451080 446.416260,219.386520 518.499268,207.612411 
	C593.574341,195.349594 663.252136,244.450836 675.838806,319.656708 
	C688.636475,396.123230 636.284180,464.062531 564.707764,476.303650 
	C559.309387,477.226929 553.822876,477.634705 547.891357,478.288513 
M455.832184,262.207001 
	C448.095337,267.729767 443.217255,275.844971 437.183899,282.904938 
	C436.162384,284.100281 435.445160,285.894897 435.327942,287.467834 
	C434.652771,296.530029 434.827515,305.556732 440.049683,313.498505 
	C443.470795,318.701324 443.924011,323.988647 441.732208,329.647156 
	C438.993530,336.717499 439.272858,343.593842 442.676941,350.417694 
	C444.830292,354.734222 447.115967,359.104675 447.802155,363.913940 
	C449.227905,373.906708 453.174103,383.140930 456.207062,392.629364 
	C458.126190,398.633270 461.108795,404.555176 465.835419,408.807434 
	C481.607513,422.996674 500.246338,429.074982 521.463074,427.464172 
	C532.450317,426.630005 543.434814,426.974640 554.086243,430.199524 
	C568.559326,434.581482 583.071106,434.289459 597.416260,430.190308 
	C607.351074,427.351379 614.531982,421.178406 618.020386,410.862976 
	C619.965698,405.110657 621.985596,399.294525 625.935730,394.290131 
	C635.872559,381.701141 641.625610,367.495148 642.071228,351.193237 
	C642.400024,339.168274 638.068604,327.316040 640.227234,315.397858 
	C642.531067,302.678040 639.206299,291.852448 632.250122,281.478455 
	C623.938354,269.082733 613.323486,259.298157 599.196899,254.524063 
	C588.053772,250.758224 576.493408,247.727585 564.602783,247.210846 
	C556.847229,246.873825 548.916626,246.278473 541.413208,248.921402 
	C537.568481,250.275620 533.761597,251.498474 529.745728,251.057968 
	C515.652100,249.512009 501.728851,252.739655 487.661102,252.309387 
	C476.314270,251.962357 466.368256,257.017914 455.832184,262.207001 
z"/>
<path fill="#000000" opacity="1.000000" stroke="none" 
	d="
M532.335022,360.156860 
	C533.845825,370.992767 533.565613,381.485687 532.677612,391.888184 
	C532.061096,399.109894 526.592407,403.265442 519.254211,403.358582 
	C510.607452,403.468384 501.957397,403.456909 493.310364,403.358612 
	C485.662476,403.271698 480.007385,397.943024 479.795807,390.281403 
	C479.548035,381.307495 479.549103,372.317352 479.778290,363.342804 
	C479.946594,356.752625 484.500671,351.458008 491.084381,350.699615 
	C501.502808,349.499390 512.015076,349.500824 522.427490,350.833740 
	C527.447083,351.476318 530.600525,354.976135 532.335022,360.156860 
M512.874451,384.764221 
	C515.341675,383.687195 514.647278,381.443634 514.685364,379.566803 
	C514.922607,367.874908 514.659851,367.792358 502.890564,368.513428 
	C499.245178,368.736786 498.073700,369.903259 498.176605,373.565094 
	C498.538239,386.431641 496.361847,384.869324 509.521606,385.018768 
	C510.349945,385.028198 511.179138,384.964905 512.874451,384.764221 
z"/>
<path fill="#000000" opacity="1.000000" stroke="none" 
	d="
M598.239685,330.322418 
	C596.954834,331.168091 596.033142,332.108521 594.963196,332.328949 
	C582.491882,334.898315 569.906067,335.270325 557.534424,332.296692 
	C552.501709,331.087036 549.887756,326.411011 549.764587,321.162415 
	C549.546143,311.856628 549.537781,302.538391 549.750671,293.232422 
	C549.909180,286.305481 555.288574,280.928619 562.200012,280.765808 
	C571.339783,280.550476 580.490417,280.577515 589.632202,280.737274 
	C596.290039,280.853638 601.477661,285.209259 602.306702,291.896423 
	C603.556030,301.972534 603.268188,312.127686 602.501587,322.246307 
	C602.267273,325.340027 600.796570,327.945953 598.239685,330.322418 
M573.688477,315.595703 
	C585.201477,315.545258 585.833679,314.784332 584.607544,303.495575 
	C584.278259,300.463593 582.949219,299.247864 579.873291,299.046204 
	C567.963928,298.265564 567.939148,298.211334 568.100403,310.047363 
	C568.104919,310.379028 568.133606,310.713989 568.099060,311.041931 
	C567.728210,314.560883 569.456055,315.902161 573.688477,315.595703 
z"/>
<path fill="#000000" opacity="1.000000" stroke="none" 
	d="
M479.909180,291.680908 
	C483.011932,283.414124 486.763855,280.740112 494.968933,280.695587 
	C502.632751,280.653992 510.297058,280.644440 517.960815,280.683319 
	C526.947876,280.728943 532.591248,285.618073 533.012024,294.515350 
	C533.420837,303.158905 533.323181,311.844177 533.034790,320.497375 
	C532.803162,327.450073 528.302124,332.591248 521.380798,333.427704 
	C511.452484,334.627502 501.407867,334.562988 491.476898,333.505463 
	C484.412720,332.753174 479.896942,327.262085 479.771484,320.092072 
	C479.608368,310.767059 479.793762,301.435974 479.909180,291.680908 
M511.922089,315.511993 
	C514.688538,313.726776 516.052124,301.854401 513.713501,299.821167 
	C513.470642,299.610046 513.148376,299.398346 512.843262,299.364655 
	C508.528625,298.887970 504.206146,298.795166 499.908569,299.471771 
	C498.784393,299.648834 498.335815,300.697540 498.338379,301.752167 
	C498.348999,306.165497 497.792816,310.618835 498.826141,315.559204 
	C503.126526,315.559204 507.103516,315.559204 511.922089,315.511993 
z"/>
<path fill="#000000" opacity="1.000000" stroke="none" 
	d="
M598.328613,386.030945 
	C592.906860,386.174164 587.918274,386.192719 582.930908,386.276398 
	C579.401489,386.335632 576.776855,385.162201 575.723206,381.490723 
	C575.081543,379.254913 573.870239,377.350525 571.220886,377.792725 
	C568.563721,378.236206 568.116882,380.459106 568.109558,382.772247 
	C568.095337,387.262939 568.167725,391.756256 568.038513,396.243683 
	C567.876770,401.861053 566.370728,403.287933 560.820923,403.378082 
	C558.825989,403.410522 556.828491,403.391296 554.834045,403.332520 
	C551.623230,403.237885 549.809814,401.459686 549.787354,398.341980 
	C549.684448,384.039032 549.687500,369.735107 549.704224,355.431641 
	C549.708069,352.154877 551.784668,350.661682 554.777039,350.379883 
	C560.250732,349.864410 565.739014,349.950989 571.216248,350.372162 
	C573.991516,350.585571 575.883057,351.925598 576.441956,354.829742 
	C577.135315,358.432892 579.780579,359.152405 582.844849,358.805023 
	C586.502869,358.390289 591.209290,360.626312 593.017517,355.102966 
	C593.930481,352.314087 595.458557,350.266235 598.752686,350.770081 
	C602.188904,351.295624 602.696716,354.116302 602.758850,356.805511 
	C602.935608,364.451508 602.957581,372.103210 602.896240,379.751495 
	C602.873535,382.588867 601.735474,384.941193 598.328613,386.030945 
z"/>
<path fill="#000000" opacity="1.000000" stroke="none" 
	d="
M598.721130,394.177795 
	C601.757996,395.319397 603.034851,397.259827 602.308289,400.077972 
	C601.757935,402.212646 600.112610,403.267822 597.883789,403.272278 
	C595.597961,403.276886 594.016113,402.037689 593.576294,399.941284 
	C592.795593,396.220093 594.864075,394.492645 598.721130,394.177795 
z"/>
<path fill="#000000" opacity="1.000000" stroke="none" 
	d="
M579.366089,394.312927 
	C582.415344,393.948608 584.168396,395.219757 584.976074,397.675049 
	C585.541687,399.394073 584.916321,400.998077 583.543152,402.090485 
	C581.290466,403.882599 578.827637,403.938080 577.031677,401.604889 
	C574.705750,398.583282 575.714539,396.107727 579.366089,394.312927 
z"/>
</svg>